<svg xmlns="http://www.w3.org/2000/svg" viewBox="0 0 780.22 612.74"><defs><style>.cls-1{fill:#f8c291;}.cls-2{fill:#4f985f;}</style></defs><g id="Layer_2" data-name="Layer 2"><g id="Layer_2-2" data-name="Layer 2"><path class="cls-1" d="M608,290.81c-9.9-59.38-36.8-116.15-77.79-164.17a363.7,363.7,0,0,0-147.11-104c-63.28-24-132.65-29-200.62-14.52A384.08,384.08,0,0,0,0,104S68.69,63.72,105.65,50A371.22,371.22,0,0,1,232.2,26.91a94.17,94.17,0,0,1-24.38,9.24c-3.09.69-6,1.17-8.6,1.59-7.56,1.24-13.53,2.22-15.87,7.4-3.68,8.13,5.49,17.86,6.55,19a27.31,27.31,0,0,0,10.61,6.63,37.72,37.72,0,0,0-7.19,1.2c-8.39,2.23-17.29,9.28-35,23.32-7.43,5.89-10.82,9-14.09,12-2.82,2.61-5.49,5.08-10.67,9.19a153.36,153.36,0,0,1-28.08,18.24c-6.75,3.49-11.2,5.79-16.36,13.09C80,160.67,75.27,180,77,197c.32,3.07.83,5.82,1.32,8.48,1.2,6.45,2.23,12-.19,19.27-.53,1.59-1.16,3.07-1.77,4.51-1.79,4.2-3.48,8.16-1.74,12.82,1.29,3.44,3.61,4.95,5.86,6.41a18.21,18.21,0,0,1,4.65,3.89c3,3.69,3,7.43,3.07,12.17a51.05,51.05,0,0,0,.44,7.34c2.6,17.24,19.47,31.6,34,36.36,7.24,2.37,12.85,2,17.79,1.62,5.67-.4,10.56-.75,17.06,3.2a33.59,33.59,0,0,1,6.28,5c2.4,2.32,4.67,4.51,9.19,5.39,6.87,1.34,12.12-1.67,17.67-4.85a72.94,72.94,0,0,1,8.53-4.39c5.77-2.41,20.63-7.42,34-2,4.42,1.79,12.76,6.64,18.91,19l.61,1.22,28,3.17c6.89,1.76,11.21,4.5,12.82,8.14,1.73,3.92-.05,7.84-2.51,13.27-2.64,5.85-5.93,13.13-5.28,22.77.62,9.19,4.54,15.9,7.41,20.8,5.5,9.4,11.24,13.39,17.31,17.6a73,73,0,0,1,10.87,8.68c12.49,12.47,22.86,35.47,18.52,55.29-1.6,7.32-4.84,12.19-7.71,16.48-3.69,5.53-7.17,10.76-5.42,18.94,1.05,4.95,3.27,7.61,5.84,10.7a45.51,45.51,0,0,1,8.42,14,40.88,40.88,0,0,1,2.83,10.84,27,27,0,0,0,3.36,10.65c3.09,5.71,6.17,8.28,9.42,11a43.63,43.63,0,0,1,8.92,9.44,34,34,0,0,1,5.75,12.74c.74,2.93,1.44,5.7,4,8.6,4.58,5.13,12.09,7.21,20.93,7.21,17.35,0,39.83-8,55.41-16.68,20.82-11.59,37.81-28.91,50.48-51.49l.42-.75-.13-.85c-1.26-8.15-.33-15.28,2.78-21.2,3.38-6.46,7.93-8.77,13.19-11.46,4.77-2.43,10.17-5.19,14.88-11.43,11.44-15.16,8.32-37,6-52.89a85,85,0,0,0-4.35-17.8c-1.3-3.75-2.24-6.46-2.2-11.13.13-13.14,8.22-21.18,17.59-30.49,5.34-5.3,10.86-10.79,15.36-17.69,13.05-20,15.2-47.9,6.39-82.81l-1.17-4.65L567.74,285c-16.84,19.39-20.63,17.65-20.67,17.63-.33-.18-.67-1.92-.9-3.07-.11-.58-.23-1.19-.38-1.84-.07-.31-1.77-7.64-12-23.07-5.86-8.85-13.2-13.12-21.7-18.05-7.82-4.55-16.68-9.69-26.61-19.72-2.11-2.13-6-6.09-6.36-11.53-.1-1.74.77-3.06,2.46-5.43a29.23,29.23,0,0,0,5-9.94c.14-.53.27-1.07.39-1.61,4.23,5.64,8.56,11.23,12.93,16.67,9.31,11.59,13.09,15.46,16.14,18.57a98,98,0,0,1,9.59,11.2c1,1.29,1.86,2.45,2.63,3.49,4.13,5.52,6.2,8.29,10.29,8.6,9.81.75,19.42-14.16,20.86-27a32.85,32.85,0,0,0,.13-5.92,267.24,267.24,0,0,1,29.85,67c17.79,61.61,4.26,153.2,4.26,153.2C612.16,399.66,617,344.68,608,290.81ZM217.82,72.39c10-1.47,15.23-6.61,20.79-12,3.54-3.46,7.2-7,12.41-10,11.4-6.41,26.4-7.32,44.63-2.73-16.41,22-33,33.44-49.47,33.93-8.85.26-15.82-2.67-22.56-5.5-2.87-1.21-5.76-2.43-8.81-3.41A29.84,29.84,0,0,0,217.82,72.39Z"/><path class="cls-1" d="M577.55,499.12c-4.41-3.71-12.62.72-14.22,1.64-3.34,1.92-4.77,3.95-6.59,6.52-.93,1.32-2,2.82-3.54,4.64a35.29,35.29,0,0,1-8,7,18.46,18.46,0,0,0-6.3,6.16c-3,5-3.94,11.28-2.73,18.76a32.49,32.49,0,0,0-2.51,19.79c.78,3.92,2.42,12.06,8.8,14.37a9.69,9.69,0,0,0,3.32.56c5.87,0,12.24-4.8,15.9-10.23,2.56-3.8,2.94-6.81,3.48-11a89.9,89.9,0,0,1,1.8-10.29,40.57,40.57,0,0,1,2-6.46c.83-2.15,2-5.09,4-11.15C581.18,504.8,579.82,501,577.55,499.12Z"/><path class="cls-2" d="M778.44,68.76c-12.7-7.27-24.64-9.91-35.47-7.87a41.49,41.49,0,0,0-11.18,4c-3.51,1.7-6.28,3-11,2.82C715,67.41,712,65,708.59,62.25s-7.3-5.86-14.12-6.69c-7.77-.94-13.23,1.78-18,4.19s-8.65,4.32-14.15,2.72c-3.38-1-5.08-2.66-7-4.6a23.3,23.3,0,0,0-8.67-5.95c-7.07-2.7-12.7-.42-18.15,1.78-3.77,1.52-7.66,3.09-12.44,3.37-9,.51-18.66-3.38-28.59-11.56l-.69-.58H518.25c-22.56-12.92-44.07-18-63.93-15.13A61.5,61.5,0,0,0,438,34.53,129.8,129.8,0,0,1,414,42c-13.61,3-32.26,7.09-54.42,3.76C347.89,44,342.8,41.27,338.71,39.1s-7.56-4-14.93-4h-.23c-15.14.08-23.88,7.84-33.13,16.07-9.05,8-19.32,17.17-38,21.9a76.72,76.72,0,0,1-16.05,2.32A59,59,0,0,0,215,80a84.4,84.4,0,0,0-18.13,10c-5.29,3.65-9.1,6.28-16.87,7.26a57.13,57.13,0,0,1-15.62-.55c-6.55-.9-12.21-1.67-17.48,2.6-4.22,3.43-6.65,9-7.23,16.4l-.09,1.15,19.63,19.63,1.5-.55c15.29-5.65,29.31-6.82,41.68-3.47A72.82,72.82,0,0,1,216.18,138a85.54,85.54,0,0,0,20.17,7.58,88.1,88.1,0,0,0,24.45,2.09l-34.35,39.63,3.17,1.34c14.66,6.22,28.79,8.4,42,6.49a69.68,69.68,0,0,0,14-3.62c5-1.75,8.34-2.91,14-1.71s8.95,3.76,12.86,6.74c4.13,3.15,8.81,6.72,16.61,8.65l2.71.68c6.55,1.65,11.82,3,16.36,2.3,26.25,15.8,52.94,30,78.77,43.67,25.63,13.6,52.13,27.66,78.13,43.29.14,16.14.51,33.63.87,50.56s.75,34.71.88,50.94A57.75,57.75,0,0,0,497.86,411a57.06,57.06,0,0,0-3.17,9.51l-.75,3.14,46.63-.88L533,395.71l-.74-77.59a206.7,206.7,0,0,0,45.53-141.59c9-8.37,16.76-12,25-15.93s16.72-7.86,26.22-16.71c4.9.61,11-3,18-7.23s14.71-8.83,21.68-9.43c31-2.65,52-21.5,60.86-31.08a30.9,30.9,0,0,0,16.27,4.56c14.5-.26,28.09-11.91,33.82-29l.65-1.94Zm-298,129.75a41.45,41.45,0,0,1,3.08-3.54c3.31-3.32,13.27-1.84,19.8.09.21,5.16.85,20.87,1.54,36.47.75,16.79,1.19,26.46,1.56,32.1-2-1.88-4.55-4.25-7.49-7-7.41-6.9-17.3-16.08-27.19-25.27l-38-35.22a5.56,5.56,0,0,1,2.86-2.09c2-.41,4.87,1.51,8.17,3.74,3.73,2.52,8.38,5.66,14.3,7.17C472.45,208.39,476.49,203.37,480.4,198.51ZM373.71,201h42.56l59.22,57.78C449.8,245.87,396.24,218.2,373.71,201Zm150.42,87.37V191.6c5.35.09,12.67-1.66,16-8.25,4.41,4.76,12.59,13.59,15.07,16.31a103,103,0,0,1-.2,32C551.34,254.4,541,273.47,524.13,288.38Z"/></g></g></svg>